<?xml version="1.0" standalone="no"?>
<!DOCTYPE svg PUBLIC "-//W3C//DTD SVG 20010904//EN"
 "http://www.w3.org/TR/2001/REC-SVG-20010904/DTD/svg10.dtd">
<svg version="1.0" xmlns="http://www.w3.org/2000/svg"
 width="109.000000pt" height="109.000000pt" viewBox="0 0 109.000000 109.000000"
 preserveAspectRatio="xMidYMid meet">
<metadata>
Created by potrace 1.14, written by Peter Selinger 2001-2017
</metadata>
<g transform="translate(0.000000,109.000000) scale(0.100000,-0.100000)"
fill="#000000" stroke="none">
<path d="M438 1076 c-10 -7 -20 -28 -22 -47 -3 -19 -8 -56 -11 -84 -6 -46 -32
-154 -57 -233 l-10 -33 -34 30 c-57 50 -84 23 -52 -52 l20 -46 -30 -39 c-50
-63 -67 -117 -67 -212 0 -76 4 -93 32 -151 94 -190 327 -264 518 -165 50 26
122 104 151 164 24 49 28 69 28 147 1 77 -3 97 -25 142 -17 36 -23 58 -17 73
10 27 -11 36 -52 22 -29 -11 -30 -10 -24 16 17 73 78 241 99 274 33 49 31 72
-4 97 -42 30 -159 79 -228 95 -76 17 -193 18 -215 2z"/>
</g>
</svg>
